<svg xmlns="http://www.w3.org/2000/svg" width="31" height="31" viewBox="0 0 31 31" fill="none"><circle cx="15.4836" cy="15.4836" r="15.4836" fill="url(#paint0_linear)"></circle><path d="M23.3219 13.622C23.2697 13.593 23.2107 13.5786 23.151 13.5802C23.0914 13.5818 23.0332 13.5995 22.9828 13.6314L17.075 17.7408C16.5972 18.0374 16.046 18.1946 15.4836 18.1946C14.9212 18.1946 14.37 18.0374 13.8922 17.7408L7.98448 13.6314C7.93395 13.5996 7.87582 13.582 7.81616 13.5804C7.7565 13.5787 7.69749 13.5931 7.64527 13.622C7.59306 13.6509 7.54955 13.6933 7.51927 13.7447C7.489 13.7961 7.47307 13.8547 7.47314 13.9144V19.5738C7.47314 20.105 7.68413 20.6143 8.0597 20.9899C8.43526 21.3655 8.94464 21.5764 9.47576 21.5764H21.4915C22.0226 21.5764 22.532 21.3655 22.9075 20.9899C23.2831 20.6143 23.4941 20.105 23.4941 19.5738V13.9144C23.4943 13.8547 23.4784 13.7961 23.4481 13.7446C23.4178 13.6932 23.3742 13.6508 23.3219 13.622V13.622Z" fill="white"></path><path d="M23.4941 11.3932C23.4941 10.8621 23.2831 10.3527 22.9075 9.97718C22.532 9.60161 22.0226 9.39063 21.4915 9.39062H9.47576C8.94464 9.39063 8.43526 9.60161 8.0597 9.97718C7.68413 10.3527 7.47314 10.8621 7.47314 11.3932C7.47312 11.4101 7.4774 11.4267 7.48558 11.4414C7.49376 11.4561 7.50556 11.4685 7.51987 11.4774L14.9496 16.54C15.1087 16.6389 15.2923 16.6913 15.4796 16.6913C15.6669 16.6913 15.8505 16.6389 16.0096 16.54L23.4434 11.4774C23.4583 11.4689 23.4709 11.4567 23.4797 11.4419C23.4886 11.4272 23.4936 11.4104 23.4941 11.3932V11.3932Z" fill="white"></path><defs><linearGradient id="paint0_linear" x1="2.04974" y1="4.56435" x2="27.5313" y2="28.3944" gradientUnits="userSpaceOnUse"><stop stop-color="#3ACBD0"></stop><stop offset="1" stop-color="#11CA91"></stop></linearGradient></defs></svg>