<svg xmlns="http://www.w3.org/2000/svg" width="31" height="31" viewBox="0 0 31 31" fill="none"><circle cx="15.485" cy="15.485" r="15.485" fill="url(#paint0_linear)"></circle><path d="M23.6729 10.9135H23.0253C22.7848 10.9135 22.4447 11.2604 22.4447 11.4824V19.5312C22.4447 19.7535 22.7848 20.0566 23.0253 20.0566H23.6729V21.9671H17.805V20.0566H19.0331V11.5957H18.9729L16.1049 21.9671H13.8844L11.0533 11.5957H10.9817V20.0566H12.2099V21.9671H7.29712V20.0566H7.92624C8.18525 20.0566 8.5253 19.7535 8.5253 19.5312V11.4823C8.5253 11.2603 8.18525 10.9134 7.92624 10.9134H7.29712V9.00293H13.4402L15.4571 16.5085H15.5128L17.5482 9.00293H23.6729V10.9135Z" fill="white"></path><defs><linearGradient id="paint0_linear" x1="2.04992" y1="4.56476" x2="27.5338" y2="28.3969" gradientUnits="userSpaceOnUse"><stop stop-color="#3ACBD0"></stop><stop offset="1" stop-color="#11CA91"></stop></linearGradient></defs></svg>