<svg xmlns="http://www.w3.org/2000/svg" width="31" height="31" viewBox="0 0 31 31" fill="none"><circle cx="15.4836" cy="15.4836" r="15.4836" fill="url(#paint0_linear)"></circle><path d="M22.5022 7.18931C22.5185 7.1211 22.5149 7.04962 22.4916 6.98344C22.4684 6.91725 22.4266 6.85916 22.3713 6.81611C22.3159 6.77305 22.2493 6.74687 22.1794 6.74068C22.1095 6.73449 22.0394 6.74857 21.9773 6.78122L7.02397 14.6211C6.85853 14.7084 6.71894 14.8377 6.6192 14.9959C6.51946 15.1542 6.46306 15.3359 6.45567 15.5228C6.44827 15.7097 6.49014 15.8953 6.57707 16.061C6.664 16.2266 6.79294 16.3665 6.95097 16.4666L10.2799 18.5706C10.3134 18.592 10.3529 18.6018 10.3925 18.5985C10.4321 18.5952 10.4695 18.579 10.4989 18.5523L19.374 10.6183C19.408 10.5872 19.4526 10.5701 19.4987 10.5706C19.5448 10.571 19.5891 10.5889 19.6226 10.6206C19.6561 10.6523 19.6763 10.6955 19.6792 10.7416C19.6821 10.7876 19.6675 10.833 19.6383 10.8687L12.5452 19.7649C12.5289 19.7852 12.5172 19.8087 12.5108 19.8339C12.5043 19.8591 12.5034 19.8853 12.508 19.9109C12.5123 19.9362 12.5219 19.9603 12.5361 19.9817C12.5503 20.0031 12.5688 20.0212 12.5905 20.035L17.2861 23.0033C17.4289 23.0936 17.5913 23.1483 17.7596 23.1631C17.9279 23.1779 18.0973 23.1523 18.2537 23.0884C18.4101 23.0244 18.549 22.9241 18.6588 22.7956C18.7686 22.6672 18.8461 22.5144 18.8849 22.35L22.5022 7.18931Z" fill="white"></path><path d="M11.4786 20.7267C11.451 20.7092 11.4192 20.6994 11.3865 20.6983C11.3539 20.6973 11.3215 20.7051 11.2929 20.7208C11.2642 20.7365 11.2403 20.7597 11.2237 20.7878C11.207 20.8159 11.1982 20.848 11.1982 20.8807V23.4972C11.1981 23.6416 11.2409 23.7828 11.321 23.9029C11.4012 24.0231 11.5152 24.1167 11.6486 24.1721C11.782 24.2274 11.9288 24.2419 12.0705 24.2138C12.2121 24.1857 12.3423 24.1161 12.4444 24.014L13.9169 22.5415C13.9361 22.5221 13.9508 22.4987 13.9597 22.4729C13.9687 22.4471 13.9718 22.4196 13.9688 22.3924C13.9658 22.3653 13.9568 22.3391 13.9424 22.3159C13.9279 22.2927 13.9085 22.273 13.8855 22.2583L11.4786 20.7267Z" fill="white"></path><defs><linearGradient id="paint0_linear" x1="2.04974" y1="4.56435" x2="27.5313" y2="28.3944" gradientUnits="userSpaceOnUse"><stop stop-color="#3ACBD0"></stop><stop offset="1" stop-color="#11CA91"></stop></linearGradient></defs></svg>