<svg xmlns="http://www.w3.org/2000/svg" width="31" height="31" viewBox="0 0 31 31" fill="none"><circle cx="15.4836" cy="15.4836" r="15.4836" fill="url(#paint0_linear)"></circle><path d="M18.12 8.99995V8.99707H18.8551L19.1237 9.05179C19.3027 9.08731 19.4653 9.13387 19.6114 9.19146C19.7575 9.24906 19.8988 9.31626 20.0355 9.39306C20.1721 9.46985 20.296 9.54809 20.4072 9.62777C20.5175 9.70649 20.6165 9.79 20.7041 9.87832C20.7908 9.96759 20.926 9.99063 21.1098 9.94743C21.2936 9.90424 21.4915 9.84423 21.7035 9.76744C21.9155 9.69065 22.1252 9.60425 22.3325 9.50825C22.5399 9.41225 22.6662 9.3513 22.7114 9.32538C22.7557 9.29851 22.7793 9.28411 22.7821 9.28218L22.7849 9.27786L22.799 9.27066L22.8132 9.26346L22.8273 9.25626L22.8414 9.24906L22.8443 9.24474L22.8485 9.24186L22.8528 9.23898L22.8556 9.23466L22.8697 9.23034L22.8839 9.22746L22.881 9.24906L22.8768 9.27066L22.8697 9.29226L22.8626 9.31386L22.8556 9.32826L22.8485 9.34266L22.8414 9.36426C22.8367 9.37866 22.832 9.39785 22.8273 9.42185C22.8226 9.44586 22.7778 9.54184 22.693 9.70984C22.6082 9.87784 22.5022 10.0482 22.375 10.221C22.2477 10.3938 22.1337 10.5244 22.0329 10.6127C21.9311 10.702 21.8637 10.7644 21.8307 10.7999C21.7977 10.8364 21.7577 10.8699 21.7106 10.9007L21.6399 10.9482L21.6257 10.9554L21.6116 10.9626L21.6088 10.9669L21.6045 10.9698L21.6003 10.9727L21.5975 10.977L21.5833 10.9842L21.5692 10.9914L21.5664 10.9957L21.5621 10.9986L21.5579 11.0015L21.5551 11.0058L21.5523 11.0101L21.548 11.013L21.5438 11.0159L21.5409 11.0202H21.6116L22.0074 10.9338C22.2713 10.8762 22.5234 10.8066 22.7637 10.725L23.1454 10.5954L23.1878 10.581L23.209 10.5738L23.2231 10.5666L23.2372 10.5594L23.2514 10.5522L23.2655 10.545L23.2938 10.5407L23.3221 10.5378V10.5666L23.315 10.5695L23.3079 10.5738L23.3051 10.5781L23.3009 10.581L23.2966 10.5839L23.2938 10.5882L23.291 10.5925L23.2867 10.5954L23.2825 10.5983L23.2797 10.6026L23.2768 10.6069L23.2726 10.6098L23.2655 10.6242L23.2585 10.6386L23.2542 10.6415C23.2523 10.6444 23.1925 10.726 23.0747 10.8863C22.9569 11.0476 22.8933 11.1291 22.8839 11.1311C22.8744 11.1339 22.8612 11.1483 22.8443 11.1743C22.8283 11.2011 22.7284 11.3082 22.5446 11.4954C22.3608 11.6826 22.1808 11.8491 22.0046 11.995C21.8274 12.1419 21.7379 12.3224 21.736 12.5365C21.7332 12.7496 21.7224 12.9905 21.7035 13.2593C21.6847 13.5281 21.6493 13.8185 21.5975 14.1305C21.5457 14.4425 21.4655 14.7953 21.3572 15.1888C21.2488 15.5824 21.1169 15.9664 20.9614 16.3408C20.8059 16.7152 20.6433 17.0512 20.4737 17.3488C20.304 17.6463 20.1485 17.8983 20.0072 18.1047C19.8658 18.3111 19.7221 18.5055 19.576 18.6879C19.43 18.8703 19.2453 19.0757 19.0219 19.3042C18.7976 19.5317 18.6751 19.6565 18.6544 19.6786C18.6327 19.6997 18.5404 19.7784 18.3773 19.9147C18.2152 20.052 18.0409 20.1893 17.8543 20.3266C17.6686 20.4629 17.498 20.5766 17.3425 20.6678C17.1871 20.759 16.9995 20.8632 16.7799 20.9803C16.5613 21.0984 16.3248 21.2078 16.0703 21.3086C15.8159 21.4094 15.5473 21.503 15.2646 21.5894C14.9818 21.6758 14.7085 21.743 14.4447 21.791C14.1808 21.839 13.8816 21.8798 13.547 21.9134L13.0452 21.9638V21.971H12.1264V21.9638L12.0062 21.9566C11.9261 21.9518 11.8601 21.947 11.8083 21.9422C11.7565 21.9374 11.5609 21.911 11.2217 21.863C10.8824 21.815 10.6162 21.767 10.423 21.719C10.2298 21.671 9.94236 21.5798 9.56069 21.4454C9.17902 21.311 8.85248 21.1752 8.58107 21.0379C8.3106 20.9016 8.14097 20.8152 8.07217 20.7787C8.00432 20.7432 7.92798 20.699 7.84317 20.6462L7.71594 20.567L7.71313 20.5627L7.70888 20.5598L7.70463 20.5569L7.70181 20.5526L7.68767 20.5454L7.67354 20.5382L7.67072 20.5339L7.66647 20.531L7.66223 20.5281L7.6594 20.5238L7.65659 20.5195L7.65233 20.5166H7.64526V20.4878L7.6594 20.4907L7.67354 20.495L7.73715 20.5022C7.77956 20.507 7.895 20.5142 8.08348 20.5238C8.27197 20.5334 8.47222 20.5334 8.68426 20.5238C8.8963 20.5142 9.11306 20.4926 9.33451 20.459C9.55598 20.4254 9.8175 20.3678 10.1191 20.2862C10.4206 20.2046 10.6977 20.1077 10.9503 19.9954C11.2019 19.8821 11.3809 19.7976 11.4874 19.7419C11.593 19.6872 11.7541 19.5855 11.9709 19.4367L12.296 19.2135L12.2988 19.2092L12.3031 19.2063L12.3073 19.2034L12.3101 19.1991L12.313 19.1948L12.3172 19.1919L12.3215 19.189L12.3243 19.1847L12.3384 19.1804L12.3525 19.1775L12.3554 19.1631L12.3596 19.1487L12.3639 19.1458L12.3667 19.1415L12.2536 19.1343C12.1782 19.1295 12.1052 19.1247 12.0345 19.1199C11.9638 19.1151 11.8531 19.0935 11.7023 19.0551C11.5515 19.0167 11.389 18.9591 11.2146 18.8823C11.0403 18.8055 10.8706 18.7143 10.7057 18.6087C10.5408 18.5031 10.4216 18.4153 10.3481 18.3452C10.2755 18.2761 10.1813 18.1782 10.0653 18.0514C9.95038 17.9238 9.85048 17.7927 9.76566 17.6583C9.68084 17.5239 9.5998 17.3689 9.52254 17.1932L9.40519 16.9312L9.39813 16.9096L9.39106 16.888L9.38682 16.8736L9.38399 16.8592L9.40519 16.8621L9.4264 16.8664L9.58189 16.888C9.68557 16.9024 9.84813 16.9072 10.0696 16.9024C10.2911 16.8976 10.4442 16.888 10.529 16.8736C10.6138 16.8592 10.6657 16.8496 10.6845 16.8448L10.7128 16.8376L10.7481 16.8304L10.7835 16.8232L10.7863 16.8189L10.7905 16.816L10.7948 16.8131L10.7976 16.8088L10.7693 16.8016L10.741 16.7944L10.7128 16.7872L10.6845 16.78L10.6562 16.7728C10.6374 16.768 10.6044 16.7584 10.5573 16.744C10.5102 16.7296 10.3829 16.6768 10.1756 16.5856C9.96829 16.4944 9.80336 16.4056 9.68084 16.3192C9.55802 16.2325 9.44092 16.1378 9.33027 16.0355C9.22001 15.9318 9.09892 15.7984 8.96698 15.6352C8.83505 15.472 8.71725 15.2824 8.61358 15.0664C8.50992 14.8504 8.43217 14.6441 8.38033 14.4473C8.32871 14.2516 8.29464 14.0516 8.27857 13.8497L8.25311 13.5473L8.26725 13.5502L8.28138 13.5545L8.29552 13.5617L8.30965 13.5689L8.32379 13.5761L8.33793 13.5833L8.55703 13.6841C8.70312 13.7513 8.88452 13.8089 9.10127 13.8569C9.31803 13.9049 9.4476 13.9313 9.49001 13.9361L9.55362 13.9433H9.68084L9.67803 13.939L9.67378 13.9361L9.66954 13.9332L9.66671 13.9289L9.6639 13.9246L9.65964 13.9217L9.6554 13.9188L9.65257 13.9145L9.63844 13.9073L9.6243 13.9001L9.62149 13.8958L9.61723 13.8929L9.61299 13.89L9.61016 13.8857L9.59603 13.8785L9.58189 13.8713L9.57908 13.867C9.57625 13.865 9.53572 13.8343 9.4575 13.7748C9.38021 13.7143 9.29917 13.6361 9.21436 13.5401C9.12954 13.4441 9.04473 13.3433 8.95991 13.2377C8.87494 13.1319 8.79926 13.0186 8.73373 12.8993C8.66778 12.7793 8.59803 12.6267 8.52452 12.4414C8.45196 12.2571 8.39683 12.0714 8.35913 11.8842C8.32144 11.697 8.30024 11.5122 8.29552 11.3298C8.29081 11.1474 8.29552 10.9914 8.30965 10.8618C8.32379 10.7322 8.35206 10.5858 8.39447 10.4226C8.43688 10.2594 8.49814 10.0866 8.57824 9.90424L8.69839 9.63065L8.70546 9.60905L8.71253 9.58745L8.71679 9.58457L8.7196 9.58025L8.72243 9.57593L8.72667 9.57305L8.73092 9.57593L8.73373 9.58025L8.73656 9.58457L8.7408 9.58745L8.74506 9.59033L8.74787 9.59465L8.7507 9.59897L8.75494 9.60185L8.76201 9.61625L8.76907 9.63065L8.77333 9.63353L8.77614 9.63785L8.96698 9.85384C9.0942 9.99783 9.24499 10.1586 9.41933 10.3362C9.59368 10.5138 9.69027 10.606 9.70912 10.6127C9.72797 10.6204 9.75152 10.6424 9.7798 10.6789C9.80807 10.7144 9.90231 10.7994 10.0625 10.9338C10.2227 11.0682 10.4324 11.2242 10.6916 11.4018C10.9507 11.5794 11.2382 11.7546 11.5539 11.9274C11.8696 12.1002 12.2088 12.2561 12.5717 12.3953C12.9345 12.5345 13.1889 12.6257 13.335 12.6689C13.4811 12.7121 13.7308 12.7673 14.0842 12.8345C14.4376 12.9017 14.7038 12.9449 14.8829 12.9641C15.0619 12.9833 15.1845 12.9944 15.2504 12.9972L15.3494 13.0001L15.3466 12.9785L15.3423 12.9569L15.314 12.7769C15.2952 12.6569 15.2858 12.4889 15.2858 12.2729C15.2858 12.057 15.3023 11.8578 15.3352 11.6754C15.3682 11.493 15.4177 11.3082 15.4837 11.121C15.5496 10.9338 15.6142 10.7836 15.6773 10.6703C15.7414 10.558 15.8253 10.4298 15.9289 10.2858C16.0326 10.1418 16.1669 9.99304 16.3318 9.83944C16.4967 9.68584 16.6852 9.54904 16.8973 9.42905C17.1093 9.30906 17.3049 9.21786 17.4839 9.15546C17.663 9.09307 17.8138 9.05226 17.9363 9.03307C18.0588 9.01387 18.12 9.00283 18.12 8.99995V8.99995Z" fill="white"></path><defs><linearGradient id="paint0_linear" x1="2.04974" y1="4.56435" x2="27.5313" y2="28.3944" gradientUnits="userSpaceOnUse"><stop stop-color="#3ACBD0"></stop><stop offset="1" stop-color="#11CA91"></stop></linearGradient></defs></svg>